0.16m3min_grf.mot
version=1
nRows=17
nColumns 19
inDegrees=yes
endheader
time	1_ground_force_vx	1_ground_force_vy	1_ground_force_vz	1_ground_force_px	1_ground_force_py	1_ground_force_pz	1_ground_torque_x	1_ground_torque_y	1_ground_torque_z	2_ground_force_vx	2_ground_force_vy	2_ground_force_vz	2_ground_force_px	2_ground_force_py	2_ground_force_pz	2_ground_torque_x	2_ground_torque_y	2_ground_torque_z
            1.253500	          -73.274137	         1337.473397	         -142.706399	           -0.261796	            0.005889	           -0.328660	           -0.066940	            1.221855	           -0.130370	          -44.697789	         1435.787063	          176.477051	           -0.280423	            0.005413	           -0.681286	            0.006523	           -0.209519	           -0.025753
            1.254000	          -72.587673	         1337.655670	         -143.165884	           -0.261758	            0.005889	           -0.328572	           -0.074316	            1.369501	           -0.146574	          -44.837549	         1435.601471	          176.758038	           -0.280484	            0.005412	           -0.681257	            0.000689	           -0.022054	           -0.002715
            1.254500	          -72.451153	         1336.936722	         -143.627869	           -0.261795	            0.005889	           -0.328592	           -0.084220	            1.554110	           -0.166959	          -44.692287	         1434.312431	          176.894156	           -0.280488	            0.005412	           -0.681120	            0.000537	           -0.017233	           -0.002125
            1.255000	          -72.176081	         1335.675217	         -143.725667	           -0.261698	            0.005889	           -0.328588	           -0.094444	            1.747759	           -0.188068	          -43.945470	         1435.052704	          176.614912	           -0.280405	            0.005413	           -0.681250	            0.002749	           -0.089776	           -0.011049
            1.255500	          -72.221541	         1334.773456	         -143.637714	           -0.261747	            0.005888	           -0.328451	           -0.094171	            1.740445	           -0.187293	          -43.145697	         1434.134937	          176.611288	           -0.280416	            0.005412	           -0.681150	            0.005157	           -0.171402	           -0.021108
            1.256000	          -72.404301	         1333.330705	         -143.505871	           -0.261597	            0.005888	           -0.328515	           -0.079036	            1.455458	           -0.156650	          -42.348767	         1433.954996	          176.187931	           -0.280433	            0.005412	           -0.681196	            0.005949	           -0.201449	           -0.024752
            1.256500	          -72.359356	         1332.611543	         -143.921790	           -0.261764	            0.005888	           -0.328457	           -0.061854	            1.139136	           -0.123026	          -41.689009	         1432.853646	          175.902126	           -0.280488	            0.005412	           -0.681132	            0.004182	           -0.143725	           -0.017644
            1.257000	          -71.901244	         1330.629919	         -144.206574	           -0.261760	            0.005888	           -0.328513	           -0.054555	            1.009620	           -0.109417	          -41.736689	         1433.038896	          175.527378	           -0.280478	            0.005412	           -0.681219	            0.001016	           -0.034887	           -0.004273
            1.257500	          -70.985141	         1330.991868	         -144.482416	           -0.261682	            0.005888	           -0.328451	           -0.061419	            1.151633	           -0.125013	          -41.590152	         1431.381954	          175.521405	           -0.280489	            0.005412	           -0.681175	           -0.001922	            0.066138	            0.008110
            1.258000	          -70.390184	         1329.011207	         -145.042684	           -0.261624	            0.005888	           -0.328476	           -0.076319	            1.440945	           -0.157259	          -41.447651	         1430.830313	          175.425533	           -0.280482	            0.005412	           -0.681208	           -0.001976	            0.068222	            0.008364
            1.258500	          -69.794418	         1328.831541	         -145.136640	           -0.261652	            0.005888	           -0.328353	           -0.083650	            1.592629	           -0.173949	          -40.837478	         1430.466026	          174.954664	           -0.280450	            0.005412	           -0.681208	           -0.000369	            0.012912	            0.001579
            1.259000	          -69.519002	         1326.848702	         -145.145825	           -0.261607	            0.005888	           -0.328375	           -0.079226	            1.512112	           -0.165412	          -39.752662	         1428.444643	          174.853137	           -0.280479	            0.005412	           -0.681055	            0.003813	           -0.136998	           -0.016770
            1.259500	          -69.334059	         1325.764845	         -144.600662	           -0.261654	            0.005888	           -0.328347	           -0.061060	            1.167560	           -0.127345	          -38.767127	         1427.898223	          174.146833	           -0.280480	            0.005412	           -0.681087	            0.005364	           -0.197586	           -0.024098
            1.260000	          -69.197344	         1325.225678	         -144.970170	           -0.261699	            0.005887	           -0.328193	           -0.046522	            0.890953	           -0.097464	          -38.017858	         1427.903607	          173.395665	           -0.280498	            0.005412	           -0.681193	            0.003741	           -0.140489	           -0.017060
            1.260500	          -68.830319	         1323.062636	         -145.026193	           -0.261738	            0.005888	           -0.328298	           -0.043424	            0.834699	           -0.091495	          -37.591624	         1426.616586	          173.250079	           -0.280450	            0.005412	           -0.681108	            0.003191	           -0.121114	           -0.014708
            1.261000	          -67.959790	         1321.982451	         -145.308135	           -0.261579	            0.005887	           -0.328145	           -0.049700	            0.966788	           -0.106266	          -37.164176	         1424.962165	          172.821655	           -0.280404	            0.005412	           -0.681037	            0.002071	           -0.079424	           -0.009633
            1.261500	          -67.180903	         1321.262399	         -145.542438	           -0.261573	            0.005887	           -0.328160	           -0.063576	            1.250373	           -0.137734	          -37.394605	         1423.857936	          172.442388	           -0.280406	            0.005412	           -0.681012	            0.000906	           -0.034480	           -0.004176
